<?xml version="1.0" encoding="utf-8"?>
<!-- Generator: Adobe Illustrator 22.1.0, SVG Export Plug-In . SVG Version: 6.00 Build 0)  -->
<svg version="1.1" xmlns="http://www.w3.org/2000/svg" xmlns:xlink="http://www.w3.org/1999/xlink" x="0px" y="0px"
	 viewBox="0 0 325.4 57.5" style="enable-background:new 0 0 325.4 57.5;" xml:space="preserve">
<style type="text/css">
	.st0{fill:none;stroke:#999999;stroke-width:0.25;stroke-miterlimit:10;}
	.st1{fill:#3C2F54;}
	.st2{fill:#EC1E27;}
	.st3{fill:#21B5AD;}
	.st4{fill:#BE1E2D;}
	.st5{fill:#C99C28;}
	.st6{fill:none;stroke:#C99C28;stroke-miterlimit:10;}
	.st7{fill:#574672;}
	.st8{fill:#FFFFFF;}
	.st9{fill:#36284A;}
	.st10{fill:#BE1E2D;stroke:#BE1E2D;stroke-width:12;stroke-miterlimit:10;}
	.st11{fill:#666666;}
	.st12{fill:#333333;}
	.st13{fill:#999999;}
	.st14{fill:#B3B3B3;}
	.st15{fill:#E5AD23;}
	.st16{fill:#DD5D36;}
	.st17{fill:#3BB7B3;}
	.st18{fill:#36C972;}
	.st19{fill:#6D3EFF;}
	.st20{fill:#37DDD1;}
	.st21{fill:#46E888;}
	.st22{fill:#FFCE00;}
	.st23{fill:#FF8017;}
	.st24{fill:#FF001F;}
	.st25{fill:#D30F22;}
	.st26{fill:#1EAD58;}
	.st27{clip-path:url(#SVGID_2_);fill:#3C2F54;}
	.st28{clip-path:url(#SVGID_2_);}
	.st29{clip-path:url(#SVGID_4_);fill:#3BB7B3;}
	.st30{clip-path:url(#SVGID_6_);fill:#46E888;}
	.st31{clip-path:url(#SVGID_6_);fill:#36C972;}
	.st32{clip-path:url(#SVGID_6_);}
	.st33{clip-path:url(#SVGID_8_);fill:#E5AD23;}
	.st34{clip-path:url(#SVGID_10_);fill:#DD5D36;}
	.st35{clip-path:url(#SVGID_12_);fill:#FF001F;}
	.st36{clip-path:url(#SVGID_12_);fill:#BE1E2D;}
	.st37{clip-path:url(#SVGID_12_);}
	.st38{clip-path:url(#SVGID_14_);fill:#6D3EFF;}
	.st39{clip-path:url(#SVGID_14_);}
	.st40{clip-path:url(#SVGID_16_);fill:#6D3EFF;}
	.st41{clip-path:url(#SVGID_16_);}
	.st42{clip-path:url(#SVGID_18_);fill:#37DDD1;}
	.st43{clip-path:url(#SVGID_20_);fill:#36C972;}
	.st44{clip-path:url(#SVGID_20_);fill:#46E888;}
	.st45{clip-path:url(#SVGID_20_);}
	.st46{clip-path:url(#SVGID_22_);fill:#FFCE00;}
	.st47{clip-path:url(#SVGID_24_);fill:#FF8017;}
	.st48{clip-path:url(#SVGID_26_);fill:#BE1E2D;}
	.st49{clip-path:url(#SVGID_26_);fill:#FF001F;}
	.st50{clip-path:url(#SVGID_26_);}
	.st51{clip-path:url(#SVGID_44_);}
	.st52{clip-path:url(#SVGID_46_);fill:#3BB7B3;}
	.st53{clip-path:url(#SVGID_48_);fill:#46E888;}
	.st54{clip-path:url(#SVGID_48_);}
	.st55{clip-path:url(#SVGID_50_);fill:#E5AD23;}
	.st56{clip-path:url(#SVGID_52_);}
	.st57{opacity:0.53;clip-path:url(#SVGID_54_);}
	.st58{opacity:0.53;}
	.st59{clip-path:url(#SVGID_54_);}
	.st60{clip-path:url(#SVGID_60_);fill:#3BB7B3;}
	.st61{opacity:0.61;clip-path:url(#SVGID_60_);}
	.st62{opacity:0.61;}
	.st63{clip-path:url(#SVGID_60_);}
	.st64{clip-path:url(#SVGID_60_);fill:none;}
	.st65{clip-path:url(#SVGID_60_);fill:#37DDD1;}
	.st66{fill:none;}
	.st67{opacity:0.82;}
	.st68{clip-path:url(#SVGID_68_);}
	.st69{clip-path:url(#SVGID_70_);}
	.st70{clip-path:url(#SVGID_72_);fill:#37DDD1;}
	.st71{clip-path:url(#SVGID_74_);fill:#36C972;}
	.st72{clip-path:url(#SVGID_74_);}
	.st73{clip-path:url(#SVGID_76_);fill:#E5AD23;}
	.st74{clip-path:url(#SVGID_76_);}
	.st75{clip-path:url(#SVGID_78_);fill:#FFCE00;}
	.st76{clip-path:url(#SVGID_80_);}
	.st77{fill:none;stroke:#EC1E27;stroke-width:3;stroke-linecap:round;stroke-miterlimit:10;}
	.st78{fill:#fff;}
	.st79{fill:none;stroke:#FFFFFF;stroke-width:2;stroke-linecap:round;stroke-linejoin:round;stroke-miterlimit:10;}
	.st80{fill:none;stroke:#EC1E27;stroke-width:4;stroke-linecap:round;stroke-miterlimit:10;}
	.st81{fill:none;stroke:#EC1E27;stroke-width:2;stroke-linecap:round;stroke-miterlimit:10;}
	.st82{fill:none;stroke:#EC1E27;stroke-width:2;stroke-linecap:round;stroke-linejoin:round;stroke-miterlimit:10;}
	.st83{fill:#0066B2;}
	.st84{fill:#F9A533;}
	.st85{fill:#C0C2C4;}
	.st86{clip-path:url(#SVGID_84_);fill:#BE1E2D;}
	.st87{clip-path:url(#SVGID_84_);fill:#D30F22;}
	.st88{clip-path:url(#SVGID_84_);fill:#AA1A2B;}
	.st89{clip-path:url(#SVGID_84_);}
	.st90{fill:#AA1A2B;}
</style>
<g id="Layer_2">
</g>
<g id="Layer_1">
	<g>
		<defs>
			<rect id="SVGID_49_" x="-1594.4" y="-1319.9" width="640" height="540"/>
		</defs>
		<clipPath id="SVGID_2_">
			<use xlink:href="#SVGID_49_"  style="overflow:visible;"/>
		</clipPath>
		<path style="clip-path:url(#SVGID_2_);fill:#E5AD23;" d="M205.2-542.2c-26.6-11.2-53.8-8.9-81.3,7.1l0,0l-82.2,52.1
			c-20.4,11.9-41.9,15.1-65.8,9.6c-23.4-5.5-40.6-17.8-52.3-37.9c-15.2-26.1-33.8-62.3-54.9-107.4c-17.6-39.5-31.5-67.8-42.5-86.7
			c-23.6-40.3-49.9-89.8-78.1-147.2c-27.2-55.9-48-96-63.4-122.3c-49.3-84.3-112.7-153-188.3-204.1c-75.4-51-160.6-85.7-254.2-103.2
			c-75.7-11-161.6-4.9-255.3,18.3c-93.3,23.1-171.7,53-233,88.9c-61.3,35.9-125.4,87.9-190.2,154.6
			c-65.3,67.1-114.3,139.8-145.5,216.1c-32.6,79.4-30.5,151.7,6.3,214.6c13.4,22.9,37.3,43.2,70.9,60.3c36.2,18.5,66.5,21,89.9,7.3
			c52.4-30.7,99.3-79.4,139.6-145.1c27.6-48,54-88.9,78.5-121.8c23.5-31.5,51.6-56.9,83.6-75.6c112.7-65.9,206.4-94.3,278.5-84.3
			c17,2.4,33.8,7.7,50.4,15.6c1.3,0.6,2.4,1.2,3.6,1.8c7.3,3.7,14.6,7.9,21.8,12.7c21,14.8,35.8,33.9,49.2,58.7
			c5.4,9.9,14,18.4,18.3,28.8c14.2,34.9-28.4,60.8-51.5,77.6c-17.4,12.7-117.4,57.5-125.3,60.7l0.1,0.2
			c-24.2,9.9-46.4,20.3-65.5,31.5c-81.4,47.7-154.6,105-217.4,170.6c-62.8,65.4-113.3,136-150.2,210.1
			c-31.9,68.6-49.4,137.3-52,204.2c-2.6,67.9,13.5,132.2,48,191.2c78.9,134.7,182,213.7,306.5,234.8
			c123.4,20.9,250.7-6.4,378.4-81.1c77.1-45.1,155.7-107,233.4-183.8C-313.9,12.5-263.1-61-235.4-134.3c64.8,25.7,125.3,35.2,180,28
			C3-114,72.2-141,150.2-186.7c42.9-25.1,80.4-68.6,111.4-129c32.3-63.2,34.1-120.2,5.1-169.6C250.7-512.6,230-531.8,205.2-542.2z"
			/>
		<path style="clip-path:url(#SVGID_2_);fill:#E5AD23;" d="M7.6-413.6c-18.9-8-38.1-6.3-57.5,5.1l0,0l-58.1,36.9
			c-14.4,8.4-29.7,10.7-46.6,6.8c-16.6-3.9-28.7-12.6-37-26.8c-10.8-18.4-23.9-44.1-38.9-76c-12.5-27.9-22.3-48-30.1-61.3
			c-16.7-28.5-35.3-63.6-55.3-104.1c-19.3-39.6-33.9-67.9-44.9-86.6C-395.6-779.4-440.5-828-494-864.2
			c-53.3-36.1-113.7-60.6-179.9-73c-53.6-7.8-114.4-3.5-180.6,13c-66,16.4-121.5,37.5-164.9,62.9c-43.4,25.4-88.7,62.2-134.6,109.4
			c-46.2,47.5-80.9,98.9-103,152.9c-23.1,56.2-21.6,107.3,4.5,151.9c9.5,16.2,26.4,30.6,50.2,42.7c25.6,13.1,47.1,14.8,63.6,5.1
			c37.1-21.7,70.3-56.2,98.8-102.7c19.5-33.9,38.2-62.9,55.5-86.2c16.6-22.3,36.5-40.3,59.2-53.5c79.7-46.7,146-66.7,197.1-59.6
			c12.1,1.7,23.9,5.4,35.6,11c0.9,0.4,1.7,0.9,2.6,1.3c5.2,2.6,10.3,5.6,15.4,9c14.8,10.5,25.3,24,34.8,41.5c3.8,7,9.9,13,12.9,20.4
			c10.1,24.7-20.1,43-36.4,54.9c-12.3,9-83.1,40.7-88.7,42.9l0.1,0.1c-17.2,7-32.8,14.4-46.3,22.3
			c-57.6,33.7-109.4,74.3-153.9,120.7c-44.4,46.3-80.2,96.2-106.3,148.7c-22.6,48.6-34.9,97.2-36.8,144.5c-1.8,48,9.6,93.6,34,135.3
			c55.8,95.3,128.8,151.2,216.9,166.1c87.3,14.8,177.4-4.5,267.8-57.4c54.6-31.9,110.2-75.7,165.2-130.1
			C-359.7-21-323.8-73-304.1-125c45.9,18.2,88.7,24.9,127.4,19.8c41.3-5.4,90.3-24.5,145.5-56.9c30.4-17.8,56.9-48.5,78.8-91.3
			c22.8-44.7,24.1-85.1,3.6-120C39.9-392.7,25.2-406.2,7.6-413.6z"/>
	</g>
	<g>
		<path class="st78" d="M286.1,18.7c-2-3.6-4.6-6.3-7.6-7.9c-3-1.6-6.7-2.5-11-2.5c-2.2,0-4.7,0.5-7.4,1.5c-2.7,1-4.7,2.3-5.8,3.7
			c-2.4,3-4.2,6.6-5.1,10.4c-0.9,3.9-0.4,7.7,0.8,11.5c0.3,1.1,0.8,2.3,1.3,3.3c1.5,2.9,3.8,5.3,6.5,7c3.2,2,6.4,3.1,9.5,3.1
			c7,0,14.2-3.5,17.7-9.7c2.1-3.8,2.8-8,2.8-12.2c0-1.3-0.2-2.8-0.5-4.4C287.1,20.9,286.6,19.6,286.1,18.7z M277.2,33.3
			c-1,2.1-2,4.1-3.9,5.4c-1.9,1.4-4.4,1.9-6.7,1.3c-3.5-0.9-5.5-4-6.2-7.3c-0.4-2.1-0.5-2.9-0.5-3.3c0-2.5-0.3-5.4,0.7-7.7
			c0.9-2.1,2.7-3.9,4.9-4.6c1.5-0.5,3.1-0.5,4.6-0.2c0.8,0.2,1.5,0.5,2.2,0.9c0.5,0.3,1.4,0.5,1.8,0.9c1.2,1.2,2.3,2.2,2.9,3.8
			c0.6,1.6,0.9,3.3,0.9,5C277.9,31.9,277.3,33,277.2,33.3z"/>
		<path class="st78" d="M324.6,33.1c-1.2-2.6-3.6-4.1-6-5.4c-3.2-1.7-6.5-2.6-10-3.5c-1.5-0.4-2.9-0.9-4.2-1.5
			c-1.8-0.8-2.7-1.7-2.7-2.7c0-0.8,0.6-1.5,1.8-2c2.8-1.3,6.8-1.1,9.5,0.2c2.2,1,3.2,3.8,5.9,3.8c2.6,0,4.4-2.2,4.4-4.7
			c0-1.4-0.6-2.8-1.7-3.9c-1.1-1.1-2.4-2.1-4.1-3.1c-2.6-1.6-5.8-1.8-8.8-1.7c-2.9,0.1-5.7,0.6-8.5,1.4c-2.5,0.8-4.5,2.1-6.2,4.2
			c-1.2,1.6-1.9,3.3-1.9,4.9c0,2.7,0.7,5,2.2,6.9c1.4,1.8,3.3,3.3,5.5,4.4c4.5,2.1,9.6,2.6,13.9,5.3c0.7,0.4,1.4,1,1.7,1.8
			c0.9,3.2-6.5,3-8.1,3c-1.6,0-3.1-0.4-4.6-1.1c-1.5-0.7-2.5-1.8-3.2-3.4c-0.3-0.5-0.8-0.9-1.5-1.3c-0.7-0.4-1.4-0.5-2.2-0.5
			c-1.4,0-2.5,0.4-3.4,1.2c-0.9,0.8-1.3,1.9-1.3,3.2c0,2.7,2.1,5.1,4.1,6.7c2.1,1.7,4.7,2.7,7.4,3.2c2.5,0.4,5,0.5,7.5,0.4
			c2.3-0.1,4.6-0.3,6.8-1.1c5.1-1.9,9.6-7.8,7.9-13.4C324.9,33.9,324.8,33.5,324.6,33.1z"/>
		<path class="st78" d="M244.9,9.3c-1-0.6-2.4-0.9-4.2-0.8c-2.4,0.1-3.6,2.9-4.6,4.7c-2.1,4-3.1,8.4-5,12.5
			c-0.7,1.5-1.5,2.9-2.6,4.1c-0.5,0.6-0.9,1-1.7,0.7c-0.7-0.3-1.3-0.9-1.8-1.6c-2.5-3.6-4.1-7.6-5.3-11.7c-0.3-1-0.7-1.9-1-2.9
			c-0.2-0.6-0.3-1.4-0.6-2c-0.6-1.4-1.3-2.4-2.1-3c-0.8-0.7-2-1-3.7-0.9c-1.5,0.1-2.7,0.6-3.5,1.5c-0.8,0.9-1.2,2.1-1,3.5
			c0.1,0.6,0.3,1.1,0.5,1.6c1.7,6.3,4.1,12.4,6.8,18.3c1,2.1,1.9,4.1,3,6.1c0.6,1.2,1.3,2.4,2,3.6c0.6,1,1.2,2.3,2,3.1
			c2,1.9,4.1,2.8,6.4,2.7c2.4-0.1,4.6-1,6.3-2.6c1.7-1.6,2.9-3.6,3.6-6l1.5-7.1c1.5-5.6,3.3-11.1,5.5-16.4c0.6-1.4,1.1-2.8,1.2-4.3
			C246.6,11.1,246.1,10,244.9,9.3z"/>
		<path class="st78" d="M209.3,41.6c-0.4-0.6-1.1-0.9-1.9-0.9h0l-2.5,0.1c-0.6,0-1.1-0.2-1.6-0.6c-0.5-0.4-0.7-0.9-0.7-1.5
			c0-0.8,0.1-1.8,0.2-3.1c0.1-1.1,0.2-1.9,0.2-2.5c0-1.2,0.1-2.7,0.2-4.3c0.1-1.6,0.2-2.8,0.2-3.6c0-2.5-0.5-4.9-1.5-7
			c-1-2.1-2.5-4-4.3-5.6c-1.6-1.2-3.6-2.2-6-2.9c-2.4-0.7-4.5-1.1-6.4-1.1c-1.8,0-4,0.3-6.3,1c-2.3,0.6-4.4,1.6-6.1,2.9
			c-1.8,1.4-2.7,3-2.7,4.9c0,0.7,0.3,1.5,0.8,2.3c0.6,0.9,1.2,1.3,1.9,1.3c1.6,0,3.3-0.5,5-1.4c1.2-0.7,2.4-1.3,3.4-1.7
			c0.9-0.4,1.9-0.6,2.9-0.6c3.4,0,5.9,0.6,7.3,1.8c0.4,0.3,0.7,0.6,0.9,1c0,0,0,0.1,0.1,0.1c0.1,0.2,0.2,0.4,0.3,0.6
			c0.3,0.6,0.4,1.2,0.3,2c0,0.3,0.1,0.6,0,0.9c-0.1,1-1.4,1-2.2,1.1c-0.6,0.1-3.4-0.3-3.6-0.3v0c-0.7-0.1-1.3-0.2-1.9-0.2
			c-2.4,0-4.8,0.3-7.1,1c-2.3,0.6-4.3,1.6-6.1,2.7c-1.6,1.1-2.9,2.4-3.8,3.9c-0.9,1.5-1.4,3.1-1.4,4.9c0,4.1,1.3,7.2,3.8,9.3
			c2.5,2.1,5.7,3.1,9.5,3.1c2.3,0,4.9-0.4,7.6-1.1c2.6-0.7,4.7-1.6,6.3-2.9c1.1,1.4,2.3,2.4,3.7,3c1.4,0.6,3.3,0.9,5.7,0.9
			c1.3,0,2.7-0.5,4.2-1.4c1.6-1,2.3-2.2,2.3-3.7C209.9,42.9,209.7,42.2,209.3,41.6z M192.7,37.3c-2.4,1.4-4.4,2.3-6.1,2.9
			c-1.7,0.5-3.9,0.8-6.4,0.8c-0.9,0-1.8-0.4-2.7-1.1c-0.9-0.7-1.3-1.5-1.3-2.6c0-2.1,0.9-3.6,2.6-4.4c1.9-0.9,4-1.3,6.4-1.3
			c2,0,4.7,0.7,7.8,2.2C193.1,35.2,192.9,36.3,192.7,37.3z"/>
		<path class="st78" d="M161.9,22.2c-1-2.3-2.2-4.3-3.8-6.1c-1.9-2.1-4.7-4.1-8.3-5.8c-3.9-1.8-8.1-2.2-12.3-2.4
			c-4-0.3-8.3-0.9-12.1,0.8c-1.9,0.8-3.2,2.3-3.2,4.4c0,1.1,0.5,2.1,1.5,2.7c0.6,0.4,1.3,0.6,2.1,0.7c0.1,1,0.2,1.8,0.2,2.1l0,0.5
			c0,0.1,0,0.2,0.1,0.3c0.3,2.2,0.5,4.4,0.7,6.6c0.2,2.3,0.3,1.8,0.3,5.4c0,2.7-0.1,5.2-0.3,7.6c-0.8,0.1-1.5,0.3-2.2,0.7
			c-1,0.6-1.5,1.6-1.5,2.7c0,1.6,0.8,3.7,4.6,4.8c2.5,0.7,5.3,1.1,8.4,1.1c4,0,7.4-0.3,10-1c2.7-0.7,4.9-1.6,6.5-2.6
			c1.6-1,3.2-2.4,5-4c1.8-1.6,3.2-3.7,4.3-6.3c1.1-2.6,1.3-4.6,1.3-6.8S162.9,24.5,161.9,22.2z M151.6,33.5
			c-1.4,1.9-3.3,3.5-5.6,4.6c-2.1,1-4.3,1.5-6.7,1.6c-0.2,0-0.3,0-0.4,0c-0.7-0.1-1.4-0.2-2-0.6c-0.5-0.3-0.4-1.4-0.4-1.9
			c-0.1-0.5-0.1-1-0.2-1.5l0,0c0.1-1.7,0.1-3.5,0.1-5.5c0-3.1-0.1-3.7-0.4-8.8c-0.1-1.3-0.1-2.1-0.1-2.8c0-0.1,0-0.2,0-0.4
			c0-0.4,0.1-0.9,0.4-1.3c0.3-0.5,1.2-0.6,1.9-0.6c1.6,0.1,3,0.3,4.3,0.5c2.2,0.4,4,1.1,5.4,2c0.6,0.4,1.2,0.8,1.7,1.3
			c1,1,2.5,2.4,3.3,4.7c0.6,1.7,0.6,3.9,0.4,4.7h0C153.1,31,152.5,32.3,151.6,33.5z"/>
		<path class="st78" d="M97.3,46.4c-0.1-1-0.5-1.7-1.1-2.2c-0.6-0.5-1.4-0.7-2.3-0.5c-0.7,0.1-5,1.6-5.8,2c-0.3,0.1-0.9,0.3-1.6,0.6
			c-1.1,0.4-2.3,0.8-3,1.2l-4.1,2.4c-1.5,0.7-3,1.6-4.6,2.5c-0.2,0.1-0.5,0.3-0.7,0.4L74,52.9l0,0c-0.5,0.2-0.7,1.1-0.8,1.5
			c0,0.5,0.1,1.1,0.5,1.6c0.8,1,2.4,1.4,3.6,1.5c0.1,0,0.2,0,0.3,0c1.3,0,2.6-0.5,3.8-1c0.5-0.2,1-0.5,1.5-0.7l0.3-0.2
			c0.3-0.3,0.7-0.5,1-0.7l2.2-1.2c2.5-1,7.8-3,8.7-3.3c0.8-0.5,1.5-1,1.8-1.5C97.3,48.3,97.5,47.5,97.3,46.4z"/>
		<g>
			<path class="st78" d="M46.9,12.1c0.4,0.1,0.8,0.2,1.2,0.2c1.3,0,2.5-0.7,3.4-1.9c1-1.4,1.2-3,1.3-4.7c0-0.2,0-0.4,0-0.6
				c0.1-1.7,0.4-4.5-2.1-5c-2.2-0.5-5.3,0-6.9,1.8c-1.1,1.4-1.3,3.9-1.2,5.2C43,9,44.2,11.2,46.9,12.1z"/>
			<path class="st78" d="M62.5,11.9L62.5,11.9c-0.8-0.5-2-0.8-3.5-0.7c-1.9,0.1-2.9,2.1-3.7,3.6l-0.2,0.3c-0.9,1.8-1.6,3.7-2.3,5.5
				c-0.6,1.6-1.1,3.2-1.9,4.7c-0.5,1-1.2,2.3-2.1,3.3c-0.4,0.5-0.7,0.7-1.3,0.5c-0.6-0.2-1.1-0.8-1.4-1.2c-2.2-3.1-3.4-6.6-4.4-9.6
				c-0.1-0.5-0.3-0.9-0.5-1.4c-0.1-0.3-0.2-0.6-0.3-0.9c-0.1-0.2-0.1-0.4-0.2-0.6c-0.1-0.3-0.2-0.7-0.3-1c-0.5-1.1-1.1-2-1.7-2.5
				c-0.7-0.6-1.7-0.8-3.1-0.8c-1.3,0.1-2.3,0.5-2.9,1.3c-0.7,0.8-1,1.8-0.9,2.9c0,0.3,0.1,0.6,0.2,0.9c0.1,0.2,0.1,0.3,0.1,0.5
				c1.2,4.6,3.1,9.5,5.6,15c0.8,1.7,1.6,3.4,2.4,5c0.5,1,1,2,1.6,3c0.1,0.2,0.2,0.4,0.3,0.6c0.4,0.7,0.8,1.5,1.3,2
				c1.6,1.5,3.2,2.3,5,2.3c0.1,0,0.2,0,0.3,0c2-0.1,3.8-0.8,5.2-2.1c1.4-1.3,2.4-3,2.9-5l1.3-5.8c1.2-4.5,2.7-9,4.5-13.4
				c0.4-1,0.9-2.2,1-3.5C63.9,13.4,63.5,12.6,62.5,11.9z"/>
		</g>
		<g>
			<path class="st78" d="M88.6,25.7c0.3,0,0.5,0,0.8-0.1c1.7-0.3,3-1.3,4.2-2.4c0.1-0.1,0.3-0.3,0.5-0.4c1.3-1.1,3.4-2.9,2.1-5
				c-1.2-1.9-3.7-3.7-6.1-3.5c-1.8,0.1-3.7,1.8-4.5,2.8c-1.1,1.4-1.9,3.9-0.5,6.4C85.6,24.9,87,25.7,88.6,25.7z"/>
			<path class="st78" d="M97.3,33.5c-0.2-1-0.9-2-2-3c-1.4-1.2-3.5-0.6-5.1-0.1l-0.3,0.1c-1.9,0.6-3.7,1.5-5.5,2.3
				c-1.5,0.7-3,1.4-4.6,2c-1,0.4-2.4,0.8-3.9,0.8c-0.7,0-1,0-1.3-0.5c-0.3-0.6-0.2-1.3-0.1-1.8c0.6-3.8,2.2-7.1,3.7-9.8
				c0.2-0.4,0.4-0.9,0.6-1.3c0.1-0.3,0.3-0.6,0.4-0.9c0.1-0.2,0.2-0.4,0.3-0.6c0.2-0.3,0.4-0.6,0.5-1c0.4-1.2,0.6-2.2,0.5-3
				C80.5,15.8,80,15,78.9,14c-0.9-0.8-1.9-1.2-3-1.2c-1,0.1-1.9,0.5-2.7,1.4c-0.2,0.2-0.3,0.5-0.5,0.8c-0.1,0.1-0.1,0.3-0.2,0.4
				c-2.4,4.2-4.6,8.9-6.6,14.6c-0.6,1.7-1.2,3.5-1.8,5.3c-0.3,1-0.7,2.1-1,3.2C63.1,38.7,63,39,63,39.2c-0.2,0.8-0.5,1.6-0.5,2.4
				c0,2.3,0.8,4.1,2.1,5.3c1.5,1.4,3.3,2.1,5.2,2.2c0.2,0,0.3,0,0.5,0c1.8,0,3.5-0.5,5.1-1.4l5-3.2c4-2.4,8.3-4.5,12.6-6.3
				c1-0.4,2.2-1,3.2-1.8C97.2,35.6,97.6,34.6,97.3,33.5z"/>
		</g>
		<g>
			<path class="st78" d="M7,26.3c0.8,0,1.6-0.1,2.4-0.5c1.7-0.7,2.6-2.3,2.4-4.3c-0.1-1.8-1.1-3.1-2.1-4.4c-0.1-0.1-0.2-0.3-0.4-0.5
				c-1-1.4-2.6-3.6-4.8-2.4c-2,1.1-4,3.5-4,5.9c0,1.8,1.5,3.8,2.5,4.7C4,25.6,5.4,26.3,7,26.3z"/>
			<path class="st78" d="M18.3,51.7l-4-0.9c-3.4-0.9-6.7-2-9.7-3.2c0,0-0.2-0.1-0.9-0.4c-0.6-0.3-1.1-0.4-1.4-0.3
				c-0.8,0-1.3,0.4-1.7,1C0.1,48.5,0,49.3,0,50.3c0,0.8,0.8,1.6,2.4,2.5c0.9,0.5,2.3,1,4,1.6L8.2,55l0.4,0.2c0.3,0.1,0.7,0.2,1,0.3
				c1.9,0.6,3.9,1.2,6,1.5c0.3,0,0.7,0.1,1,0.2c0.8,0.1,1.6,0.3,2.4,0.3l0.2,0c0.3,0,0.7,0,1,0c0.6,0,1.3,0,1.8-0.2
				c0.6-0.2,0.9-0.7,0.8-1.4c-0.2-0.8-0.6-1.5-1.2-2C20.8,52.8,19.7,52.1,18.3,51.7z"/>
			<path class="st78" d="M34.9,36.2l-3.2-5c-2.4-4-4.5-8.3-6.3-12.6c-0.4-1-1-2.2-1.8-3.2c-0.8-0.9-1.7-1.3-2.9-1c-1,0.2-2,0.9-3,2
				c-1.2,1.4-0.6,3.5-0.1,5.1l0.1,0.3c0.6,1.9,1.5,3.7,2.3,5.5c0.7,1.5,1.4,3,2,4.6c0.4,1,0.8,2.4,0.8,3.9c0,0.7,0,1-0.5,1.3
				c-0.6,0.3-1.3,0.2-1.8,0.1c-3.8-0.6-7.1-2.2-9.8-3.7c-0.4-0.2-0.9-0.4-1.3-0.6c-0.3-0.1-0.6-0.3-0.9-0.4
				c-0.2-0.1-0.4-0.2-0.6-0.3c-0.3-0.2-0.6-0.4-1-0.5c-1.2-0.4-2.2-0.6-3-0.5c-0.9,0.1-1.8,0.6-2.7,1.7c-0.8,0.9-1.2,1.9-1.2,3
				c0.1,1,0.5,1.9,1.4,2.7c0.2,0.2,0.5,0.3,0.8,0.5c0.1,0.1,0.3,0.1,0.4,0.2c4.2,2.4,8.9,4.6,14.6,6.6c1.7,0.6,3.5,1.2,5.3,1.8
				c1,0.3,2.1,0.7,3.2,1c0.2,0.1,0.4,0.1,0.7,0.2c0.8,0.2,1.6,0.5,2.4,0.5c2.3,0,4.1-0.8,5.3-2.1c1.4-1.5,2.1-3.3,2.2-5.2
				C36.4,39.9,35.9,38,34.9,36.2z"/>
		</g>
	</g>
</g>
</svg>
