<?xml version="1.0" encoding="utf-8"?>
<!-- Generator: Adobe Illustrator 22.1.0, SVG Export Plug-In . SVG Version: 6.00 Build 0)  -->
<svg version="1.1" xmlns="http://www.w3.org/2000/svg" xmlns:xlink="http://www.w3.org/1999/xlink" x="0px" y="0px"
	 viewBox="0 0 324.1 56.8" style="enable-background:new 0 0 324.1 56.8;" xml:space="preserve">
<style type="text/css">
	.st0{fill:none;stroke:#999999;stroke-width:0.25;stroke-miterlimit:10;}
	.st1{fill:#3C2F54;}
	.st2{fill:#EC1E27;}
	.st3{fill:#21B5AD;}
	.st4{fill:#BE1E2D;}
	.st5{fill:#C99C28;}
	.st6{fill:none;stroke:#C99C28;stroke-miterlimit:10;}
	.st7{fill:#574672;}
	.st8{fill:#FFFFFF;}
	.st9{fill:#36284A;}
	.st10{fill:#BE1E2D;stroke:#BE1E2D;stroke-width:12;stroke-miterlimit:10;}
	.st11{fill:#666666;}
	.st12{fill:#333333;}
	.st13{fill:#999999;}
	.st14{fill:#B3B3B3;}
	.st15{fill:#E5AD23;}
	.st16{fill:#DD5D36;}
	.st17{fill:#3BB7B3;}
	.st18{fill:#36C972;}
	.st19{fill:#6D3EFF;}
	.st20{fill:#37DDD1;}
	.st21{fill:#46E888;}
	.st22{fill:#FFCE00;}
	.st23{fill:#FF8017;}
	.st24{fill:#FF001F;}
	.st25{fill:#D30F22;}
	.st26{fill:#1EAD58;}
	.st27{clip-path:url(#SVGID_2_);fill:#3C2F54;}
	.st28{clip-path:url(#SVGID_2_);}
	.st29{clip-path:url(#SVGID_4_);fill:#3BB7B3;}
	.st30{clip-path:url(#SVGID_6_);fill:#46E888;}
	.st31{clip-path:url(#SVGID_6_);fill:#36C972;}
	.st32{clip-path:url(#SVGID_6_);}
	.st33{clip-path:url(#SVGID_8_);fill:#E5AD23;}
	.st34{clip-path:url(#SVGID_10_);fill:#DD5D36;}
	.st35{clip-path:url(#SVGID_12_);fill:#FF001F;}
	.st36{clip-path:url(#SVGID_12_);fill:#BE1E2D;}
	.st37{clip-path:url(#SVGID_12_);}
	.st38{clip-path:url(#SVGID_14_);fill:#6D3EFF;}
	.st39{clip-path:url(#SVGID_14_);}
	.st40{clip-path:url(#SVGID_16_);fill:#6D3EFF;}
	.st41{clip-path:url(#SVGID_16_);}
	.st42{clip-path:url(#SVGID_18_);fill:#37DDD1;}
	.st43{clip-path:url(#SVGID_20_);fill:#36C972;}
	.st44{clip-path:url(#SVGID_20_);fill:#46E888;}
	.st45{clip-path:url(#SVGID_20_);}
	.st46{clip-path:url(#SVGID_22_);fill:#FFCE00;}
	.st47{clip-path:url(#SVGID_24_);fill:#FF8017;}
	.st48{clip-path:url(#SVGID_26_);fill:#BE1E2D;}
	.st49{clip-path:url(#SVGID_26_);fill:#FF001F;}
	.st50{clip-path:url(#SVGID_26_);}
	.st51{clip-path:url(#SVGID_44_);}
	.st52{clip-path:url(#SVGID_46_);fill:#3BB7B3;}
	.st53{clip-path:url(#SVGID_48_);fill:#46E888;}
	.st54{clip-path:url(#SVGID_48_);}
	.st55{clip-path:url(#SVGID_50_);fill:#E5AD23;}
	.st56{clip-path:url(#SVGID_52_);}
	.st57{opacity:0.53;clip-path:url(#SVGID_54_);}
	.st58{opacity:0.53;}
	.st59{clip-path:url(#SVGID_54_);}
	.st60{clip-path:url(#SVGID_60_);fill:#3BB7B3;}
	.st61{opacity:0.61;clip-path:url(#SVGID_60_);}
	.st62{opacity:0.61;}
	.st63{clip-path:url(#SVGID_60_);}
	.st64{clip-path:url(#SVGID_60_);fill:none;}
	.st65{clip-path:url(#SVGID_60_);fill:#37DDD1;}
	.st66{fill:none;}
	.st67{opacity:0.82;}
	.st68{clip-path:url(#SVGID_68_);}
	.st69{clip-path:url(#SVGID_70_);}
	.st70{clip-path:url(#SVGID_72_);fill:#37DDD1;}
	.st71{clip-path:url(#SVGID_74_);fill:#36C972;}
	.st72{clip-path:url(#SVGID_74_);}
	.st73{clip-path:url(#SVGID_76_);fill:#E5AD23;}
	.st74{clip-path:url(#SVGID_76_);}
	.st75{clip-path:url(#SVGID_78_);fill:#FFCE00;}
	.st76{clip-path:url(#SVGID_80_);}
	.st77{fill:none;stroke:#EC1E27;stroke-width:3;stroke-linecap:round;stroke-miterlimit:10;}
	.st78{fill:#D30F22;}
	.st79{fill:none;stroke:#FFFFFF;stroke-width:2;stroke-linecap:round;stroke-linejoin:round;stroke-miterlimit:10;}
	.st80{fill:none;stroke:#EC1E27;stroke-width:4;stroke-linecap:round;stroke-miterlimit:10;}
	.st81{fill:none;stroke:#EC1E27;stroke-width:2;stroke-linecap:round;stroke-miterlimit:10;}
	.st82{fill:none;stroke:#EC1E27;stroke-width:2;stroke-linecap:round;stroke-linejoin:round;stroke-miterlimit:10;}
	.st83{fill:#0066B2;}
	.st84{fill:#F9A533;}
	.st85{fill:#C0C2C4;}
	.st86{clip-path:url(#SVGID_84_);fill:#BE1E2D;}
	.st87{clip-path:url(#SVGID_84_);fill:#D30F22;}
	.st88{clip-path:url(#SVGID_84_);fill:#AA1A2B;}
	.st89{clip-path:url(#SVGID_84_);}
	.st90{fill:#AA1A2B;}
</style>
<g id="Layer_2">
</g>
<g id="Layer_1">
	<g>
		<defs>
			<rect id="SVGID_49_" x="-1740.7" y="-1427.5" width="640" height="540"/>
		</defs>
		<clipPath id="SVGID_2_">
			<use xlink:href="#SVGID_49_"  style="overflow:visible;"/>
		</clipPath>
		<path style="clip-path:url(#SVGID_2_);fill:#E5AD23;" d="M58.9-649.9c-26.6-11.2-53.8-8.9-81.3,7.1l0,0l-82.2,52.1
			c-20.4,11.9-41.9,15.1-65.8,9.6c-23.4-5.5-40.6-17.8-52.3-37.9c-15.2-26.1-33.8-62.3-54.9-107.4c-17.6-39.5-31.5-67.8-42.5-86.7
			c-23.6-40.3-49.9-89.8-78.1-147.2c-27.2-55.9-48-96-63.4-122.3c-49.3-84.3-112.7-153-188.3-204.1c-75.4-51-160.6-85.7-254.2-103.2
			c-75.7-11-161.6-4.9-255.3,18.3c-93.3,23.1-171.7,53-233,88.9c-61.3,35.9-125.4,87.9-190.2,154.6
			c-65.3,67.1-114.3,139.8-145.5,216.1c-32.6,79.4-30.5,151.7,6.3,214.6c13.4,22.9,37.3,43.2,70.9,60.3c36.2,18.5,66.5,21,89.9,7.3
			c52.4-30.7,99.3-79.4,139.6-145.1c27.6-48,54-88.9,78.5-121.8c23.5-31.5,51.6-56.9,83.6-75.6c112.7-65.9,206.4-94.3,278.5-84.3
			c17,2.4,33.8,7.7,50.4,15.6c1.3,0.6,2.4,1.2,3.6,1.8c7.3,3.7,14.6,7.9,21.8,12.7c21,14.8,35.8,33.9,49.2,58.7
			c5.4,9.9,14,18.4,18.3,28.8c14.2,34.9-28.4,60.8-51.5,77.6c-17.4,12.7-117.4,57.5-125.3,60.7l0.1,0.2
			c-24.2,9.9-46.4,20.3-65.5,31.5c-81.4,47.7-154.6,105-217.4,170.6c-62.8,65.4-113.3,136-150.2,210.1
			c-31.9,68.6-49.4,137.3-52,204.2c-2.6,67.9,13.5,132.2,48,191.2c78.9,134.7,182,213.7,306.5,234.8
			c123.4,20.9,250.7-6.4,378.4-81.1c77.1-45.1,155.7-107,233.4-183.8c72.8-71.9,123.6-145.4,151.3-218.8
			c64.8,25.7,125.3,35.2,180,28c58.4-7.7,127.6-34.7,205.7-80.4c42.9-25.1,80.4-68.6,111.4-129c32.3-63.2,34.1-120.2,5.1-169.6
			C104.4-620.3,83.7-639.4,58.9-649.9z"/>
	</g>
	<g>
		<path class="st78" d="M19.4,14.9c0.3-0.3,0.5-0.7,0.5-1.3c0-0.5-0.2-1-0.5-1.4l-5.5,1.5c-1.3-0.9-2.9-1.3-4.6-1.3
			c-2.6,0-4.7,0.9-6.2,2.7c-1.5,1.8-2.2,3.9-2,6.3c0.2,2.9,1.4,4.9,3.7,6.1c-1.5,1.6-2.3,2.9-2.3,3.8s0.4,1.7,1.1,2.1
			C1.2,35.2,0,37.2,0,39.5c0,1.8,0.8,3.3,2.4,4.4c1.6,1.1,3.9,1.7,6.9,1.7c3,0,5.5-0.8,7.5-2.4c1.9-1.6,2.9-3.8,2.9-6.4
			c0-2.2-0.8-3.6-2.3-4.4c-1.5-0.8-4.1-1.2-7.8-1.3l-1.4,0c-1.1,0-1.9-0.1-2.5-0.3c-0.6-0.3-0.3-1.1,0.9-2.5
			c0.7,0.2,1.4,0.2,2.1,0.2c2.5,0,4.5-0.8,5.9-2.3c1.4-1.5,2.1-3.4,2.2-5.7c0-2.2-0.4-4-1.4-5.3C17.6,15.2,18.9,15.1,19.4,14.9z
			 M9.6,34.2c2.2,0.1,3.9,0.3,5.3,0.6c1.6,0.5,2.4,1.4,2.4,2.8c0,1.5-0.7,2.7-2,3.7s-3.2,1.5-5.4,1.5c-2.2,0-4-0.4-5.3-1.1
			c-1.3-0.7-1.9-1.9-1.9-3.4c0-1.5,0.8-3,2.5-4.5C6,34,7.4,34.1,9.6,34.2z M12.4,24.5c-0.9,1.2-2,1.7-3.5,1.8
			c-1.5,0-2.7-0.5-3.5-1.7c-0.8-1.2-1.2-2.5-1.2-4.2c0-1.6,0.4-3,1.3-4.1c0.9-1.1,2.1-1.7,3.6-1.7c1.5,0,2.7,0.5,3.5,1.7
			c0.8,1.1,1.2,2.5,1.2,4.1C13.7,22,13.3,23.4,12.4,24.5z"/>
		<path class="st78" d="M32.9,33.2V12.4l-6.6,0.7c0,1.2,0.4,1.9,1.1,2l2.4,0.2v18l-1.9,0.1c-0.3,0-0.6,0.1-0.8,0.2
			c-0.4,0.2-0.6,0.6-0.6,1.4v0.4h8.6c1,0,1.4-0.6,1.3-1.9L32.9,33.2z"/>
		<path class="st78" d="M31,8.9c0.7,0,1.2-0.2,1.6-0.6c0.4-0.4,0.6-0.9,0.6-1.6C33.3,6,33,5.4,32.6,5s-1-0.6-1.6-0.6
			S29.8,4.6,29.4,5c-0.4,0.4-0.6,1-0.6,1.6c0,0.7,0.2,1.2,0.6,1.6C29.8,8.7,30.3,8.9,31,8.9z"/>
		<path class="st78" d="M54.8,15l2.6,0.3L51.4,31l-5.6-15.9l1.7-0.1c0.7-0.1,1.1-0.3,1.2-0.6c0.1-0.2,0.2-0.3,0.2-0.4
			c0-0.1,0.1-0.3,0.1-0.5v-0.3h-7.3c-0.9,0-1.3,0.6-1.2,1.9l1.8,0.3l7.6,20.1h2.1l8.2-20.3l0.3,0c1-0.1,1.4-0.7,1.4-1.9H56
			C55.1,13.1,54.6,13.7,54.8,15z"/>
		<path class="st78" d="M75.5,12.4c-2.7,0-5.1,1.1-7.1,3.3c-2,2.2-3,5.2-3,9s0.8,6.6,2.5,8.5s3.9,2.8,6.8,2.8c2.1,0,3.9-0.4,5.6-1.3
			c1.7-0.9,2.5-1.7,2.5-2.6c0-0.5-0.2-0.8-0.5-1.1c-2.1,1.6-4.3,2.5-6.6,2.5c-2.3,0-4-0.8-5.1-2.4s-1.6-3.7-1.6-6.3
			c0-0.6,0-1.1,0-1.4h14.3v-2.2c0-2.4-0.6-4.5-1.8-6.2C80.2,13.3,78.2,12.4,75.5,12.4z M69.2,21.4c0.4-2.1,1.2-3.7,2.2-4.9
			c1.1-1.2,2.3-1.8,3.8-1.8c1.5,0,2.6,0.6,3.4,1.8c0.8,1.2,1.2,2.8,1.2,4.8H69.2z"/>
		<path class="st78" d="M234.5,19.1c-0.1-0.9-0.2-1.6-0.5-2.2c-0.2-0.6-0.5-0.9-0.7-0.9c-0.1-0.1-0.2-0.2-0.3-0.3
			c-0.1-0.1-0.2-0.3-0.2-0.5c-0.1-0.6-0.5-1.2-1.4-1.7c-0.9-0.5-1.7-0.8-2.6-0.8c-0.6,0-1,0.1-1.2,0.3c-0.2,0.2-0.4,0.3-0.6,0.3
			s-0.4,0.1-0.4,0.1s-0.2,0-0.3,0.1c-0.1,0.1-0.3,0.2-0.5,0.3c-0.2,0.2-0.5,0.4-0.8,0.6c-0.3,0.2-0.6,0.3-0.9,0.3
			c-0.2,0-0.9,0.5-2.2,1.5l-2.5,2l-2.1,1.3c-1.3,0.8-2.1,1.2-2.2,1.2c0-0.2,0.1-0.5,0.3-1c0.2-0.5,0.4-1.1,0.8-1.9
			c0.5-1.7,0.7-3.1,0.6-4.2c-0.1-1.3-0.7-2.4-1.7-3.2c-0.6-0.9-1.3-1.3-2.1-1.3c-0.4,0-0.6,0.1-0.8,0.4c-0.2,0.2-0.4,0.6-0.5,1.1
			c-0.1,0.5-0.2,1-0.1,1.4c0.1,0.7,0,1.4-0.1,2.2c-0.1,0.8-0.3,1.4-0.5,1.8c-1.3,3.2-2.3,6.2-3.1,9c-0.3,1.1-0.6,2.1-0.8,2.9
			c-1.1,0.6-2.2,1.2-3.3,1.8c-0.2,0.1-0.5,0.2-0.7,0.3c-0.4,0.1-0.7,0.2-1.1,0.3c-0.3,0.2-0.7,0.3-1,0.3c-0.4,0-0.8-0.2-1.1-0.7
			c-0.3-0.5-0.4-1.1-0.4-1.9c-0.1-1.1-0.1-2.4,0-3.8c0.1-1.5-0.6-0.9-0.4-2c0.1-1.8,0.1-3.2,0-4c-0.1-0.8-0.3-1.6-0.6-2.5
			c-0.6-1.1-1.5-2.2-2.5-3.3c-1-1.1-2-1.8-2.9-2.3c-1-0.5-2-0.8-3.1-0.8c-1.4,0-2.5,0.4-3.3,1.3c-1.7,1-3.5,2.7-5.4,5.1
			c-2,2.4-2.8,3.2-4.2,6c-1,2-1.6,3.7-1.9,5.2c0,0.1-0.1,0.2-0.1,0.3c-0.1,0.4-0.3,0.8-0.4,1.1c-0.2,0.5-0.5,0.8-0.8,1.2
			c-0.1,0.2-0.5,0.6-0.8,0.9c-0.6,0.4-1.2,0.9-1.8,1.2c-0.8,0.5-1.9,0.9-2.8,1.4c-1.1,0.5-2.2,1-3.4,1.3c-1.5,0.4-3.2,0.6-4.8,0.4
			c-0.9-0.1-3.1-0.5-3.7-1.5c-1-0.8-1.5-2.1-1.7-4c-0.1-0.7-0.1-1.3-0.1-1.7c0.1-1.8,0.2-2.1,0.4-2.8c0.2-0.7,0.6-1,1.1-1
			c0.3,0,0.7,0.1,1.3,0.3c1.2,0.7,2.7,1.1,4.6,1.1c1.4,0,2.6-0.2,3.6-0.5c2.2-1.1,4-2.5,5.5-4.3c1.5-1.8,2.3-3.3,2.4-4.7
			c-0.2-1.9-1.1-3.5-2.7-5c-0.5-0.6-1.2-1.1-1.9-1.4c-0.7-0.3-1.7-0.6-3.1-0.7c-0.5-0.1-0.9-0.1-1.4-0.2c-0.4-0.1-0.8-0.1-1.3-0.1
			c-0.8,0-1.6,0.3-2.5,0.9c-1.8,0.7-3.6,1.9-5.3,3.7c-1.8,1.8-3.2,3.8-4.3,6.1c-1.1,2.3-1.6,4.5-1.6,6.6c0,1.7,0.1,1.9,0.1,2.5
			c0.1,1.4,0.4,2.6,0.7,3.7c-0.5,0.3-0.9,0.7-1.3,0.9c-0.6,0.3-1.4,0.7-2.1,0.8c-0.5,0-1-0.2-1.5-0.3c-0.2-0.1-0.4-0.2-0.5-0.3
			c-0.2-0.2-0.6-1-0.7-2.4c-0.1-1.3-0.1-3.3-0.2-3.7c-0.1-1-0.2-1.7-0.3-2.1c0-0.5-0.1-1.2-0.2-2.1c-0.1-0.9-0.2-1.6-0.4-2.2
			c-0.2-0.5-0.5-1.1-1.1-1.6c-1-1.3-2.1-1.9-3.4-1.9c-1.7,0-4,1.1-6.8,3.3c-0.8,0.7-1.8,1.5-2.8,2.4c-1,0.9-1.7,1.5-2.1,1.8
			c0.1-0.5,0.3-1.3,0.6-2.5c0.3-1.1,0.5-2.1,0.7-2.9c0.1-0.5,0.1-0.8,0.1-1.1c-0.1-1-0.4-1.7-1-2.2c-0.3-0.2-0.6-0.6-1.2-1.1
			c-0.5-0.5-1-0.8-1.4-1c-0.4-0.2-1-0.3-1.8-0.3c-1.3,0.4-3.1,1.3-5.5,2.8c-2.4,1.5-5,4.2-6.7,5.7c-0.7,0.5-1.3,1-1.8,1.5
			c-0.4,0.4-0.8,0.7-1.2,1c-0.3,0.3-0.5,0.3-0.6,0.1c0-0.2,0.3-1.4,0.8-3.4c0.6-2,1.1-3.5,1.5-4.4l0.8-2.3c0.4-1,0.5-2,0.5-3
			c-0.1-1-0.5-1.9-1.1-2.5c-0.7-0.6-1.4-0.9-2.2-0.9c-0.7,0-1.2,0.2-1.7,0.6c-0.5,0.4-0.7,1-0.7,1.8c0.1,0.8-0.1,2-0.6,3.6
			c-0.8,2.2-1.4,3.8-1.7,4.9c-0.3,1-0.5,1.9-0.6,2.6l-0.3,1.7c0,0.5-0.2,1.7-0.6,3.6c-0.5,2.9-0.7,4.7-0.6,5.6
			c0.1,0.7,0.2,1.2,0.5,1.6c0.6,1.7,1.9,2.6,3.7,2.6c0.1,0,0.6-0.5,1.3-1.5c1.4-2.1,2.6-3.5,3.4-4.2l2-2c1.9-1.9,3.1-3.3,3.6-4
			c0.5-0.3,1.6-1.9,2.2-2.5c0.6-0.6,1-0.9,1.1-0.9c0.2-0.5,0.8-0.9,1.7-1.4c0.9-0.5,1.6-0.8,2.2-0.8c0.3-0.1,0.4,0.3,0.2,1.1
			c-0.2,0.8-0.8,2.6-1.9,5.5l-2.2,6.8l-0.1,0.8c0,0.5,0.3,0.9,0.7,1.2l1.1,0.8c0.5,0.4,1,0.6,1.6,0.6c0.4,0,0.7-0.1,1.1-0.4
			s0.8-0.7,1.3-1.2c0.5-0.5,0.8-1,1.1-1.2c2.3-2.7,5.3-6.1,7.7-8.1c2.4-1.9,4-2.9,4.7-2.9c0.2,0,0.4,0.1,0.5,0.4
			c0.1,0.3,0.2,0.8,0.3,1.5l0.3,3.9c0.2,2.5,0.1,5.4,1,6.6c0.8,1.1,1.7,1.8,2.6,2.1c0.8,0.3,1.6,0.4,2.5,0.5c0.2,0,0.4,0.1,0.5,0.1
			c1.6,0.1,3-0.3,4.4-0.9c0.7-0.4,1.8-0.8,2.3-1.5c0.1,0.2,0.3,0.3,0.4,0.5c1,1.2,2.2,2.1,3.6,2.8c1.4,0.7,2.9,1,4.4,1
			c0.9,0,1.7-0.1,2.5-0.4c3.9-0.6,8.7-2.6,11.3-5c0.2,0.7,0.5,1.3,0.9,1.9c0.4,0.2,0.8,0.4,1.1,0.6c0.3,0.2,0.5,0.4,0.6,0.4
			c0.2,0,0.3,0,0.4,0.1s0.1,0.2,0.1,0.3c0,0.2,0.4,0.4,1,0.6c0.7,0.1,1.4,0.2,2.2,0.2c0.5,0,1-0.1,1.6-0.2c2.6-1,4.1-2,4.7-3.1
			c0.1-0.2,0.6-0.7,1.5-1.6l1.9-2l3.6-3.5l0.7,2c0.9,2.1,1.8,3.8,2.7,5.2c0.9,1.3,1.8,2,2.6,2c1.2,0,2.4-0.5,3.7-1.3c0,0,0,0,0,0
			c0.1-0.1,0.2-0.1,0.3-0.2c0.4-0.3,0.7-0.6,1-0.9c0.8-0.6,1.7-1.2,2.5-1.8c0.6,0.5,1.2,0.9,1.9,1c0.4,0.1,0.6,0.2,0.8,0.2
			c0.7,0,1.1-0.3,1.4-0.9c1.1-1.1,2.5-2.5,4.3-4.1c1.7-1.6,3.2-2.9,4.2-3.7c0.5-0.3,1.1-0.8,1.7-1.4c0.6-0.6,1.1-1,1.3-1.2
			c0.6-0.8,1.9-1.7,3.7-2.6c1.1-0.7,1.8-1,2.1-1c0.2,0,0.4,0.1,0.4,0.4c0,0.5-0.1,1.2-0.3,2.2c-0.5,2.3-0.8,4.6-1.1,7
			c-0.2,2.4-0.3,4-0.2,4.9c0.1,1.3,0.7,2.6,1.7,4c1,1.3,2,2,2.9,2c0.5,0,0.9-0.1,1.2-0.4c0.2-0.3,0.4-0.6,0.3-0.9
			c0-0.2-0.1-0.5-0.2-0.7c-0.5-0.6-0.9-1.5-1-2.6c-0.1-1.5,0.1-3.4,0.7-5.6l0.3-2.2c0-0.3,0.1-0.9,0.3-1.9s0.2-1.8,0.1-2.4
			C234.5,21.4,234.6,20.3,234.5,19.1z M158.1,17.9c0.7-1,1.6-2,2.7-3c1.1-1,2-1.6,2.8-1.8c0.3-0.1,0.9-0.2,1.6-0.2
			c1,0,1.7,0.2,2.3,0.7c0.6,0.5,0.9,1,1,1.7c0.1,0.7-0.4,1.5-1.3,2.6c-1,1-1.9,1.7-2.9,2.1c-0.9,0.3-2,0.5-3.4,0.5
			c-2,0-3.2-0.3-3.6-0.8C157.1,19.5,157.4,18.9,158.1,17.9z M192,22.6c-1.2,1.8-2.8,3.7-4.7,5.7c-1.9,2-3.6,3.4-4.9,4.2
			c-0.7,0.5-1.4,0.7-2,0.7c-0.8,0-1.2-0.6-1.3-1.9c0-0.4,0.3-1.6,1-3.5c0.7-2,1.2-3.2,1.6-3.6l1.8-2.4c1.6-2.3,3-4.2,4.2-5.5
			c1.2-1.3,2.4-2,3.6-2c0.4,0.1,0.9,0.4,1.5,1.1c0.6,0.7,1,1.4,1.4,2.1C193.8,19.8,193.6,20.3,192,22.6z"/>
		<path class="st78" d="M322.6,14.8c-3.2-0.4-7.6,3.7-9.7,5.2c-2,1.5-2.8,2.3-4.5,3.2c-2.4,1.2-4.6,2.6-6.8,4c0.2-1.4,0.4-2.4,0.4-3
			c0.1-0.8,0.3-1.5,0.6-2.1c0.3-0.6,0.7-1.2,1.1-1.8c0.4-0.6,0.7-1,0.9-1.3c0.6-0.9,0.9-1.7,0.9-2.6c-0.1-0.6-0.3-1.3-0.7-2
			c-0.8-1.7-2-3.2-3.5-4.5c-1.4-1-2.3-1.7-2.9-2c-0.6-0.3-1.3-0.5-2.3-0.6c-0.7-0.2-1.4-0.3-2.1-0.3c-0.6,0-1.2,0.2-1.9,0.5
			c-1.8,0.5-3.8,2-6,4.5c-2.2,2.5-3.8,4.9-4.8,7.1c-1,2.8-1.3,5.4-1.1,7.9c0.1,1,0.3,1.7,0.5,2.1c0,0,0,0.1,0.1,0.1
			c-0.2,0.1-0.4,0.2-0.7,0.2c-0.3,0.1-0.9,0.3-1.5,0.6c-0.7,0.3-1.4,0.5-2.2,0.7l-0.5-5.3c0-1.6,0-2.6-0.1-2.9
			c-0.1-1-0.2-1.8-0.5-2.3s-0.6-1.2-1.3-2c-0.9-1.5-2-2.3-3.3-2.3c-1.1,0-2.4,0.6-3.9,1.7c-1.6,1.1-3.5,3-6,5.5l-5.5,5.9l0.3-1.9
			c0.3-0.7,0.5-1.5,0.8-2.1c0.2-0.7,0.4-1.2,0.5-1.5c0.2-1,0.5-2.3,1-3.8c0.5-1.5,0.4-0.7,0.8-1.4c1-1.4,1.6-2.5,1.8-3.3
			c0.2-0.8,0.3-1.7,0.2-2.6c-0.3-0.7-0.7-1.3-1.3-1.8c-0.6-0.5-1-0.8-1.5-0.8h-0.9c-0.6,0.7-1,1.3-1.1,1.7l-2.4,6
			c-1.6,4-2.1,5.2-2.6,7.3c-0.6,2.1-0.8,4-0.6,5.8c0.1,1.7,0.3,2.7,0.4,3.2s0.4,0.9,0.9,1.3c0.3,0.3,0.7,0.6,1.2,0.9s0.8,0.4,1,0.4
			c0.7,0,2-0.7,3.7-2.1c1.8-1.4,3.8-3.4,6.2-5.9c2.5-2.7,4.3-4.5,5.4-5.6c0.8-0.7,1.4-1,1.6-1c0.4,0,0.6,0.3,0.6,0.9l0.3,3.2
			c0.1,1.7,0.3,2.9,0.4,3.8c0.1,0.9,0.3,1.7,0.6,2.3c0.5,0.9,1.2,1.7,2.2,2.5c1,0.7,1.9,1.1,2.8,1.1c1.1,0,2.2-0.4,3.2-1.2
			c0.9-0.6,1.6-1.4,2.2-2.3c0.4,0.2,0.9,0.5,1.5,0.8c1.2,0.3,2.4,0.5,3.6,0.5c1.7,0,2.7-0.3,3.1-0.8c0.8-0.3,1.6-0.8,2.3-1.4
			c0.7-0.6,1.4-1.2,2.1-1.8l1.5-1.4c-0.3,0.5-0.5,1.2-0.7,2.1c-0.1,0.2-0.2,0.5-0.3,0.9c-4,3.3-7.5,7.1-10.3,11.5
			c-1.4,2.2-2.9,4.4-3.3,7c-0.6,3.7,2.7,7,6.6,7.3c1,0.1,2.1-0.1,3-0.4c2.6-1.4,4.8-6.5,6.8-15.3l1-5.3l0.5-2.3c1.5-1,3-2.1,4.5-3.1
			c7.3-5.1,7.7-5.1,14.8-10.4C320.8,19.1,326.9,15.3,322.6,14.8z M294.2,39.9l-0.5,2.5c-0.6,2.6-1.2,4.4-1.8,5.6
			c-0.6,1.2-1.3,2.1-2.2,2.9c-0.4,0.3-0.9,0.5-1.5,0.5c0,0,0,0,0,0c-1,0-1.7-1-1.5-1.9c0.6-2.3,2-5,2.4-5.6c1.6-2.3,3.5-4.2,5.5-6
			C294.5,38.6,294.3,39.2,294.2,39.9z M297.4,18.5c-0.3,1.5-0.9,2.9-1.8,4.2c-1.3,2.2-2.7,3.8-4.1,4.8c-1.4,1-3.1,1.5-5,1.5
			c-0.5-0.2-0.8-0.9-0.9-2.1c-0.1-1.7,0.1-3.4,0.6-5.4c0.5-1.6,1.1-3,1.9-4.1c1.2-1.7,2.6-3,4-4c1.4-1,2.7-1.5,3.8-1.5
			c0.5,0,0.8,0.2,1,0.5c0.2,0.3,0.4,0.9,0.5,1.7C297.7,15.5,297.7,17,297.4,18.5z"/>
		<path class="st78" d="M244.6,12.5c-0.3,0-0.6,0.1-0.8,0.3c-0.2,0.2-0.4,0.5-0.6,0.9c-0.1,0.3-0.2,0.6-0.2,0.9
			c-0.2,0.9-1,3.6-2.6,8.2c-1.6,4.6-2.7,7.6-3.4,8.9c-0.1,0.5-0.2,0.9-0.2,1.2c0,0.3,0.3,0.6,0.8,0.9c0,0.1,0.1,0.4,0.3,0.8
			c0.2,0.4,0.3,0.7,0.3,0.9c0.1,0.1,0.3,0.1,0.7,0.3s0.6,0.2,0.7,0.2c0.4,0,0.7-0.1,1-0.3s0.5-0.7,0.9-1.5c0.4-0.9,0.7-1.5,0.9-2
			c1.4-3.2,2.6-6.5,3.7-9.7c1.1-3.2,1.6-5.2,1.5-5.9c-0.1-1-0.5-2-1.1-2.8C245.9,12.9,245.3,12.5,244.6,12.5z"/>
		<path class="st78" d="M251.5,2.1c-0.8-1.1-2.5-2.2-4.1-2.1c-1.1,0.1-2.2,1-2.7,1.7c-0.7,1-0.9,2.4,0,3.8c0.7,1.1,1.8,1.4,2.9,1.2
			c1.1-0.2,1.8-0.8,2.5-1.4C250.8,4.7,252.5,3.5,251.5,2.1z"/>
	</g>
</g>
</svg>
