<?xml version="1.0" encoding="utf-8"?>
<!-- Generator: Adobe Illustrator 22.1.0, SVG Export Plug-In . SVG Version: 6.00 Build 0)  -->
<svg version="1.1" id="Layer_1" xmlns="http://www.w3.org/2000/svg" xmlns:xlink="http://www.w3.org/1999/xlink" x="0px" y="0px"
	 viewBox="0 0 45.9 58.4" style="enable-background:new 0 0 45.9 58.4;" xml:space="preserve">
<style type="text/css">
	.st0{fill-rule:evenodd;clip-rule:evenodd;fill:#ce2e48;}
</style>
<path class="st0" d="M41.7,16.9l-5.8,2l0-0.9c0-1.7-2.1-2.7-3.4-1.6l-4.1,4.7l3-11.4c0.2-1.7-1.8-2.9-3.3-1.9l-0.8,0.5l-1.7-5.8
	c-0.6-1-2-1.2-2.8-0.3l-3,5.5l-1.5-1.2c-1.6-1.3-3.9,0-3.7,2L16.1,20l-3.1-3.3c-1.4-1.1-3.4-0.1-3.4,1.7l0,0.9l-5.8-1.8
	c-1.2-0.1-2.1,1-1.7,2.1l3.1,5.5l-1.9,0.6C1.4,26.4,1.2,29,3,29.9l9.3,4.5L10.8,38c-0.5,1.2,0.5,2.5,1.8,2.3l9-1.3
	c0.1,5.6,0.3,11.3,0.7,16.9c0.1,1.2,1.9,1.1,1.8,0c-0.4-5.6-0.6-11.2-0.7-16.9l8.8,0.9c1.3,0.1,2.3-1.2,1.8-2.4l-1.2-2.9L43,29.3
	c1.8-0.9,1.5-3.6-0.4-4.2l-1.9-0.5l2.9-5.6C43.8,17.8,42.8,16.8,41.7,16.9z"/>
</svg>
